<?xml version="1.0" encoding="UTF-8"?> <svg xmlns="http://www.w3.org/2000/svg" viewBox="0 0 231.37 50"><defs><style>.cls-1{fill:#05457d;}.cls-2{fill:#cfd0d2;}.cls-3{fill:#fff;}</style></defs><title>canfield-logo-dark</title><g id="Layer_1" data-name="Layer 1"><path class="cls-1" d="M11.79,29.68a12.12,12.12,0,0,1-4.61-.87A11.24,11.24,0,0,1,.92,22.57,12.64,12.64,0,0,1,0,17.68a12.71,12.71,0,0,1,.92-4.89A11.24,11.24,0,0,1,7.18,6.55a12.12,12.12,0,0,1,4.61-.87,10.2,10.2,0,0,1,4.87,1.11,11.35,11.35,0,0,1,3.58,3l-1.67,1.07a8.17,8.17,0,0,0-2.9-2.45,8.4,8.4,0,0,0-3.88-.92A9.59,9.59,0,0,0,8,8.24a9.38,9.38,0,0,0-3.06,2.08,9.8,9.8,0,0,0-2,3.22,11.05,11.05,0,0,0-.75,4.14,10.91,10.91,0,0,0,.75,4.12A9.91,9.91,0,0,0,4.92,25,9.14,9.14,0,0,0,8,27.12a9.59,9.59,0,0,0,3.81.75A8.28,8.28,0,0,0,15.67,27a8.07,8.07,0,0,0,2.9-2.45l1.67,1a12.07,12.07,0,0,1-3.61,3A10,10,0,0,1,11.79,29.68Z"></path><path class="cls-1" d="M43.83,29.26l-2.3-5.7H29.25L27,29.26h-2.3l9.5-23.2h2.47l9.49,23.2ZM35.37,8.19,29.91,21.75h11Z"></path><path class="cls-1" d="M69.43,29.26,54.82,9.33V29.26h-2V6.06h2L69.39,25.72V6.06h2v23.2Z"></path><path class="cls-1" d="M80.7,29.26V6.06H95.41V7.87H82.68v8.59H95.16v1.81H82.68v11Z"></path><path class="cls-1" d="M102.33,29.26V6.06h2v23.2Z"></path><path class="cls-1" d="M113.18,29.26V6.06h14.71V7.87H115.16v8.59h12.49v1.81H115.16v9.18h12.73v1.81Z"></path><path class="cls-1" d="M135.75,29.26V6.06h2V27.45H149v1.81Z"></path><path class="cls-1" d="M155.2,29.26V6.06h7.42A12.24,12.24,0,0,1,167.5,7a11,11,0,0,1,3.69,2.5,10.87,10.87,0,0,1,2.35,3.69,12.19,12.19,0,0,1,.82,4.5,12.34,12.34,0,0,1-.82,4.52,10.59,10.59,0,0,1-2.35,3.69,11.08,11.08,0,0,1-3.69,2.47,12.6,12.6,0,0,1-4.88.9Zm7.41-1.81a10.27,10.27,0,0,0,4.08-.76,8.77,8.77,0,0,0,3-2.09,9,9,0,0,0,1.88-3.09,11.16,11.16,0,0,0,.64-3.83,11.21,11.21,0,0,0-.64-3.81,9.3,9.3,0,0,0-1.86-3.13,8.48,8.48,0,0,0-3-2.1,10.41,10.41,0,0,0-4.1-.77h-5.43V27.45Z"></path><path class="cls-1" d="M43.61,45.58v-9h2.88a4.75,4.75,0,0,1,1.89.36,4.47,4.47,0,0,1,1.43,1,4.26,4.26,0,0,1,.91,1.43A4.76,4.76,0,0,1,51,41.09a4.91,4.91,0,0,1-.32,1.76,4.22,4.22,0,0,1-.91,1.42,4.29,4.29,0,0,1-1.43,1,4.75,4.75,0,0,1-1.89.35Zm2.87-.7a4.12,4.12,0,0,0,1.58-.29,3.44,3.44,0,0,0,1.18-.81,3.66,3.66,0,0,0,.72-1.2,4.28,4.28,0,0,0,.25-1.49A4.2,4.2,0,0,0,50,39.62a3.36,3.36,0,0,0-.72-1.21,3.21,3.21,0,0,0-1.17-.82,4,4,0,0,0-1.59-.3h-2.1v7.59Z"></path><path class="cls-1" d="M54,45.58v-9h5.7v.7H54.81v3.33h4.84v.7H54.81v3.56h4.93v.7Z"></path><path class="cls-1" d="M64.7,45.58l-3.68-9h.89l3.26,8.13,3.28-8.13h.89l-3.68,9Z"></path><path class="cls-1" d="M70.88,45.58v-9h5.7v.7H71.64v3.33h4.84v.7H71.64v3.56h4.94v.7Z"></path><path class="cls-1" d="M79.18,45.58v-9H80v8.29H84.3v.7Z"></path><path class="cls-1" d="M90.17,45.74a4.48,4.48,0,0,1-1.8-.35,4.06,4.06,0,0,1-1.38-1,4.36,4.36,0,0,1-.88-1.47,5.59,5.59,0,0,1,0-3.67A4.18,4.18,0,0,1,87,37.79a4.06,4.06,0,0,1,1.38-1,4.66,4.66,0,0,1,3.59,0,4.1,4.1,0,0,1,1.39,1,4.18,4.18,0,0,1,.88,1.47,5.59,5.59,0,0,1,0,3.67,4.36,4.36,0,0,1-.88,1.47,4.1,4.1,0,0,1-1.39,1A4.5,4.5,0,0,1,90.17,45.74Zm0-.7a3.62,3.62,0,0,0,1.46-.29,3.41,3.41,0,0,0,1.12-.83,4.1,4.1,0,0,0,.72-1.26,4.66,4.66,0,0,0,.25-1.57,4.72,4.72,0,0,0-.25-1.58,3.94,3.94,0,0,0-.72-1.25,3.38,3.38,0,0,0-1.12-.82,3.73,3.73,0,0,0-2.93,0,3.28,3.28,0,0,0-1.12.82,3.57,3.57,0,0,0-.71,1.25,4.72,4.72,0,0,0-.25,1.58,4.66,4.66,0,0,0,.25,1.57,3.71,3.71,0,0,0,.71,1.26,3.31,3.31,0,0,0,1.12.83A3.6,3.6,0,0,0,90.17,45Z"></path><path class="cls-1" d="M97.54,45.58v-9h3.37a3,3,0,0,1,1.16.21,2.36,2.36,0,0,1,1.37,1.42,2.62,2.62,0,0,1,.19,1,2.58,2.58,0,0,1-.19,1,2.43,2.43,0,0,1-.53.85,2.54,2.54,0,0,1-.85.57,3,3,0,0,1-1.15.21H98.3v3.73Zm3.28-4.43a2.29,2.29,0,0,0,.81-.14,1.94,1.94,0,0,0,.63-.4,1.7,1.7,0,0,0,.4-.61,2.08,2.08,0,0,0,0-1.55,1.74,1.74,0,0,0-.4-.62,1.94,1.94,0,0,0-.63-.4,2.29,2.29,0,0,0-.81-.14H98.3v3.86Z"></path><path class="cls-1" d="M113.7,45.58V37.64l-3.28,7.94h-.3l-3.29-7.94v7.94h-.76v-9h1.14L110.27,44l3-7.42h1.15v9Z"></path><path class="cls-1" d="M118,45.58v-9h5.71v.7h-4.94v3.33h4.84v.7h-4.84v3.56h4.94v.7Z"></path><path class="cls-1" d="M133.09,45.58l-5.66-7.72v7.72h-.77v-9h.78l5.64,7.62V36.59h.77v9Z"></path><path class="cls-1" d="M139.34,45.58V37.29h-2.93v-.7h6.64v.7h-2.94v8.29Z"></path><path class="cls-1" d="M149.24,45.58v-9H150v9Z"></path><path class="cls-1" d="M159.64,45.58,154,37.86v7.72h-.76v-9H154l5.63,7.62V36.59h.77v9Z"></path><path class="cls-1" d="M167.84,45.74a4.83,4.83,0,0,1-1.79-.33,4.56,4.56,0,0,1-1.45-.95,4.38,4.38,0,0,1-1-1.47,5.17,5.17,0,0,1,0-3.79,4.38,4.38,0,0,1,1-1.47,4.56,4.56,0,0,1,1.45-.95,4.83,4.83,0,0,1,1.79-.34,3.94,3.94,0,0,1,1.89.44A4.25,4.25,0,0,1,171.11,38l-.64.42a3.28,3.28,0,0,0-1.13-1,3.19,3.19,0,0,0-1.5-.36,3.83,3.83,0,0,0-1.48.29,3.76,3.76,0,0,0-1.18.81,3.67,3.67,0,0,0-.8,1.25,4.38,4.38,0,0,0-.29,1.6,4.3,4.3,0,0,0,.29,1.6,3.77,3.77,0,0,0,.8,1.25,3.45,3.45,0,0,0,1.18.81,3.65,3.65,0,0,0,1.48.29,3.24,3.24,0,0,0,2.63-1.3l.64.4a4.58,4.58,0,0,1-1.4,1.17A3.83,3.83,0,0,1,167.84,45.74Z"></path><path class="cls-1" d="M174.12,45.72a.55.55,0,0,1-.42-.19.57.57,0,0,1-.17-.42.52.52,0,0,1,.17-.4.58.58,0,0,1,.84,0,.51.51,0,0,1,.19.4.65.65,0,0,1-.61.61Z"></path><rect class="cls-2" x="181.37" width="50" height="50"></rect><rect class="cls-1" x="185.91" y="4.55" width="40.91" height="40.91"></rect><path class="cls-3" d="M217.45,14l-4.69,3.31-9.4-8-5,2.75v6.17l-2.67,1.09-2.29-.47-.47,1.6-2.17.88-1.39-.29-.26,1-3.19,1.31V45.45h1.22V41.23l2.05-.11v4.33h15.17V22.18l6-2,4.08-1.36L222,25.14v3.74l-4.72-3.37,0,19.94h9.53V23.63ZM189.18,38.77l-2.05.23V34.28l2.05-.32Zm0-7-2.05.43V26.8l2.05-.52Zm3.54,13.59-2,.12V41l2-.11Zm0-6.93-2,.24v-4.9l2-.32Zm0-7.42-2,.44V25.9l2-.52Zm5.62,14-2.78.18V40.74l2.78-.17Zm0-7.19-2.78.29V33l2.78-.43Zm0-8-2.78.6V24.65l2.78-.69Zm25.74,14.78-1.51-.29V39.87l1.51.78Zm0-6.76-1.51-1V32.89l1.51,1.21Z"></path></g></svg> 