<?xml version="1.0" encoding="UTF-8"?>
<svg xmlns="http://www.w3.org/2000/svg" width="74.738" height="38" viewBox="0 0 74.738 38">
  <g id="Group_1162" data-name="Group 1162" transform="translate(-171.072 -167.45)">
    <path id="Path_1065" data-name="Path 1065" d="M240.941,184.36l-.617,2.906h.274c1.343-2.434,4.007-3.143,6.324-3.143,2.907,0,5.784.511,5.387,4.047h.314c.979-2.946,4-4.047,6.594-4.047,4.753,0,6.772,1.964,5.753,6.757l-3,14.1h-6.755l2.538-11.941c.342-2.161.715-3.732-1.917-3.732s-3.519,1.767-3.985,3.967l-2.489,11.706h-6.756l2.655-12.491c.321-1.885.479-3.182-1.877-3.182-2.79,0-3.617,1.492-4.143,3.967l-2.489,11.706H230l4.385-20.622h6.56" transform="translate(-42.386 -11.993)" fill="#004f86"></path>
    <path id="Path_1066" data-name="Path 1066" d="M389.814,178.74H382l-1.961,9.23c-.221,1.219-.093,1.729,1.163,1.729,1.767,0,1.956-1.258,2.336-2.672l.272-1.1h5.381l-.391,1.847c-1.193,5.617-3.544,6.874-9.043,6.874-4.32,0-7.779-.549-6.676-5.734l2.163-10.173h-2.514l1.051-4.949h2.516l.926-4.361h6.757l-.927,4.361h7.817l-1.051,4.949" transform="translate(-145.055 -1.424)" fill="#004f86"></path>
    <path id="Path_1067" data-name="Path 1067" d="M185.867,167.45l-1.054,4.952c4.981-.187,7.132-.936,9.418-4.952h-8.364m-5.432,25.538h6.759l3.33-15.675H183.77Z" transform="translate(-6.735 0)" fill="#da6718"></path>
    <path id="Path_1068" data-name="Path 1068" d="M173.459,285.14h-.084a4.753,4.753,0,0,1,.888,1.332,9.421,9.421,0,0,1,.478,1.155l-.6.2c-.142-.351-.276-.637-.477-1.072a7.452,7.452,0,0,0-.72-1.274.647.647,0,0,0-.628-.343l-.553,2.589h-.687l1.223-5.746h1.256c1.256,0,1.8.419,1.8,1.34a1.817,1.817,0,0,1-1.893,1.817m.067-2.579h-.661l-.453,2.152h.611a1.557,1.557,0,0,0,1.106-.293,1.314,1.314,0,0,0,.494-.971C174.623,282.82,174.3,282.561,173.526,282.561Z" transform="translate(0 -82.387)" fill="#71777b"></path>
    <path id="Path_1069" data-name="Path 1069" d="M197.693,281.983h3.141l-.218.569h-2.354l-.394,1.884h1.968l-.134.595h-1.968l-.444,2.1h2.529l-.125.6H196.47l1.223-5.746" transform="translate(-18.27 -82.387)" fill="#71777b"></path>
    <path id="Path_1070" data-name="Path 1070" d="M224,282.54a1.931,1.931,0,0,0-1.265-.444c-.77,0-1.3.411-1.3.963,0,.469.151.679.729.929l.6.26a1.4,1.4,0,0,1,.946,1.449c0,1-.879,1.817-2.362,1.817a2.69,2.69,0,0,1-1.583-.452l.335-.545a2.171,2.171,0,0,0,1.374.436c.921,0,1.5-.5,1.5-1.156,0-.477-.151-.737-.779-1.006l-.519-.217a1.354,1.354,0,0,1-.98-1.373c0-.98.913-1.667,2.119-1.667a2.546,2.546,0,0,1,1.541.494l-.36.511" transform="translate(-35.027 -82.065)" fill="#71777b"></path>
    <path id="Path_1071" data-name="Path 1071" d="M246.642,287.729h-.67l1.223-5.746h.67l-1.223,5.746" transform="translate(-53.878 -82.387)" fill="#71777b"></path>
    <path id="Path_1072" data-name="Path 1072" d="M266.869,287.033a2.66,2.66,0,0,1-1.977.7h-1.5l1.223-5.746h1.231a2.212,2.212,0,0,1,1.658.444,2.083,2.083,0,0,1,.57,1.674,4.571,4.571,0,0,1-1.206,2.932m.234-3.97c-.276-.443-.628-.519-1.231-.519h-.687l-.98,4.615h.611a1.992,1.992,0,0,0,1.658-.594,4.2,4.2,0,0,0,.854-2.379A2.028,2.028,0,0,0,267.1,283.063Z" transform="translate(-66.409 -82.387)" fill="#71777b"></path>
    <path id="Path_1073" data-name="Path 1073" d="M291.788,281.983h3.141l-.218.569h-2.353l-.393,1.884h1.968l-.134.595H291.83l-.444,2.1h2.529l-.125.6h-3.225l1.223-5.746" transform="translate(-85.955 -82.387)" fill="#71777b"></path>
    <path id="Path_1074" data-name="Path 1074" d="M316.326,281.983h.8l1.131,3.668a10.045,10.045,0,0,1,.276,1.206s.127-.922.3-1.751l.637-3.123h.678l-1.223,5.746h-.72l-1.1-3.519c-.218-.695-.361-1.381-.361-1.381s-.1.821-.251,1.566l-.679,3.335H315.1l1.223-5.746" transform="translate(-103.606 -82.387)" fill="#71777b"></path>
    <path id="Path_1075" data-name="Path 1075" d="M347.287,282.561H345.73l-1.1,5.168h-.662l1.1-5.168h-1.541l.125-.578h3.8l-.168.578" transform="translate(-124.052 -82.387)" fill="#71777b"></path>
    <path id="Path_1076" data-name="Path 1076" d="M364.432,287.729h-.671l1.223-5.746h.67l-1.223,5.746" transform="translate(-138.607 -82.387)" fill="#71777b"></path>
    <path id="Path_1077" data-name="Path 1077" d="M380.693,287.729l-.168-1.769h-2.144l-.93,1.769h-.729l3.141-5.746h.9l.678,5.746h-.745m-.52-5.16s-.209.427-.36.711l-1.131,2.12h1.784Z" transform="translate(-147.93 -82.387)" fill="#71777b"></path>
    <path id="Path_1078" data-name="Path 1078" d="M406.97,287.729h-3.032l1.223-5.746h.687l-1.1,5.167h2.438l-.218.578" transform="translate(-167.507 -82.387)" fill="#71777b"></path>
  </g>
</svg>
