<?xml version="1.0" encoding="UTF-8"?><svg xmlns="http://www.w3.org/2000/svg" viewBox="0 0 692.1 210.23"><defs><style>.d{font-family:Poppins-Medium, Poppins;font-size:36.1px;opacity:.3;}</style></defs><g id="a"/><g id="b"><g id="c"><path d="M25.28,70.37c-1.66,0-2.8-.21-3.43-.62-.63-.41-.95-1.03-.95-1.85v-24.37h20.9l16.08,21.36c.78,1.01,1.36,1.8,1.75,2.4,.39,.59,.58,1.12,.58,1.57s-.32,.82-.95,1.1c-.63,.27-1.39,.41-2.26,.41v2.46h27.33v-2.46c-.78,0-1.63-.09-2.56-.27-.93-.18-1.73-.73-2.41-1.64l-19.44-26.01c6.43-1.1,11.54-3.24,15.34-6.43,3.8-3.19,5.7-7.8,5.7-13.83,0-3.92-.73-7.23-2.19-9.93-1.46-2.69-3.56-4.88-6.28-6.57-2.73-1.69-5.99-2.92-9.79-3.7-3.8-.77-8.04-1.16-12.71-1.16H0V3.29c2.82,0,4.24,.82,4.24,2.46v62.16c0,1.64-1.41,2.46-4.24,2.46v2.46H25.28v-2.46ZM20.9,12.6h25.28c3.51,0,6.43,.25,8.77,.75,2.34,.5,4.19,1.21,5.55,2.12,1.36,.91,2.34,1.99,2.92,3.22,.58,1.23,.88,2.58,.88,4.04s-.29,2.81-.88,4.04c-.58,1.23-1.56,2.31-2.92,3.22-1.37,.91-3.21,1.62-5.55,2.12-2.34,.5-5.26,.75-8.77,.75H20.9V12.6Z"/><path d="M122.02,71.06c5.65,1.46,11.54,2.19,17.68,2.19,4.68,0,9.16-.5,13.44-1.51,4.29-1,8.11-2.19,11.47-3.56,3.36-1.37,6.14-2.6,8.33-3.7,2.19-1.1,3.58-1.64,4.17-1.64,.29,0,.56,.02,.8,.07,.24,.05,.51,.07,.8,.07l1.17-1.1-9.64-14.51-2.05,1.1c.39,.46,.58,1.01,.58,1.64,0,1.19-.95,2.44-2.85,3.77-1.9,1.32-4.26,2.51-7.09,3.56-2.83,1.05-5.94,1.92-9.35,2.6-3.41,.68-6.67,1.03-9.79,1.03-4.09,0-8.01-.55-11.76-1.64-3.75-1.1-7.01-2.69-9.79-4.79-2.78-2.1-4.99-4.68-6.65-7.74-1.66-3.06-2.48-6.55-2.48-10.47s.83-7.41,2.48-10.47c1.66-3.06,3.87-5.63,6.65-7.74,2.78-2.1,6.04-3.7,9.79-4.79,3.75-1.1,7.67-1.64,11.76-1.64,2.43,0,5.09,.27,7.96,.82,2.87,.55,5.6,1.23,8.18,2.05,2.58,.82,4.75,1.76,6.5,2.81,1.75,1.05,2.73,2.08,2.92,3.08,.1,.37,.17,.68,.22,.96,.05,.27,.07,.55,.07,.82l1.46,.96,11.4-16.57-2.19-1.64c-.2,.27-.46,.64-.8,1.1-.34,.46-.76,.68-1.24,.68-.39,0-1.46-.36-3.21-1.1-1.75-.73-4.14-1.51-7.16-2.33-3.02-.82-6.55-1.6-10.59-2.33-4.04-.73-8.55-1.1-13.52-1.1-6.14,0-12.03,.78-17.68,2.33-5.65,1.55-10.65,3.88-14.98,6.98-4.34,3.1-7.77,6.96-10.3,11.57-2.54,4.61-3.8,9.93-3.8,15.95s1.26,11.46,3.8,16.02c2.53,4.56,5.97,8.38,10.3,11.43,4.33,3.06,9.33,5.32,14.98,6.78Z"/><path d="M249.6,70.37c-3.12,0-4.68-.82-4.68-2.46v-24.37h29.37c9.35,0,16.71-1.62,22.07-4.86,5.36-3.24,8.04-8.74,8.04-16.5s-2.68-13.26-8.04-16.5c-5.36-3.24-12.71-4.86-22.07-4.86h-51.44V3.29c3.6,0,5.41,.82,5.41,2.46v62.16c0,1.64-1.8,2.46-5.41,2.46v2.46h26.74v-2.46Zm-4.68-56.95h31.13c3.21,0,5.97,.59,8.26,1.78,2.29,1.19,3.43,3.51,3.43,6.98s-1.15,5.8-3.43,6.98c-2.29,1.19-5.04,1.78-8.26,1.78h-31.13V13.42Z"/><path d="M302.64,72.84h19.58v-2.46c-.88,0-1.56-.09-2.05-.27-.49-.18-.73-.64-.73-1.37,0-.46,.12-.98,.37-1.57,.24-.59,.56-1.25,.95-1.99l4.09-7.39h31.27l3.95,7.8c.29,.73,.53,1.32,.73,1.78,.19,.46,.29,.96,.29,1.51,0,.73-.27,1.23-.8,1.51-.54,.27-1.05,.41-1.53,.41v2.05h20.75v-2.46c-.68-.18-1.32-.46-1.9-.82-.58-.36-1.12-.96-1.61-1.78l-23.67-46.55c-.49-1-.95-1.89-1.39-2.67-.44-.77-.66-1.44-.66-1.99,0-.64,.17-1,.51-1.1,.34-.09,.66-.23,.95-.41v-2.46h-22.07v2.46c.29,.18,.56,.34,.8,.48,.24,.14,.37,.48,.37,1.03,0,.73-.17,1.48-.51,2.26-.34,.78-.8,1.8-1.39,3.08l-21.77,44.5c-.39,.73-.95,1.53-1.68,2.4-.73,.87-1.68,1.39-2.85,1.57v2.46Zm36.97-48.19l11.84,23h-22.21l10.38-23Z"/><path d="M425.84,73.25c4.38,0,8.35-.37,11.91-1.1,3.55-.73,6.67-1.62,9.35-2.67,2.68-1.05,4.9-1.98,6.65-2.81,1.75-.82,3.02-1.23,3.8-1.23,.49,0,1.31,.23,2.48,.68l1.46-.68-10.81-14.51-1.61,1.37c.1,.37,.15,.82,.15,1.37v1.1c0,.82-.71,1.74-2.12,2.74-1.41,1.01-3.24,1.94-5.48,2.81-2.24,.87-4.73,1.62-7.45,2.26-2.73,.64-5.41,.96-8.04,.96-2.83,0-5.6-.48-8.33-1.44-2.73-.96-5.17-2.37-7.31-4.24-2.14-1.87-3.87-4.11-5.19-6.71-1.32-2.6-1.97-5.54-1.97-8.83s.58-6.21,1.75-8.76c1.17-2.55,2.83-4.7,4.97-6.43,2.14-1.73,4.65-3.03,7.53-3.9,2.87-.87,6.06-1.3,9.57-1.3,2.92,0,5.6,.25,8.04,.75,2.43,.5,4.55,1.12,6.36,1.85,1.8,.73,3.19,1.48,4.16,2.26,.97,.78,1.46,1.39,1.46,1.85,0,.27,.02,.5,.07,.68,.05,.18,.07,.37,.07,.55l1.61,1.1,9.64-13.01-1.75-.96c-.39,.18-.76,.41-1.1,.68-.34,.27-.76,.41-1.24,.41-.68,0-1.8-.32-3.36-.96-1.56-.64-3.51-1.37-5.84-2.19-2.34-.82-5.04-1.55-8.11-2.19-3.07-.64-6.46-.96-10.16-.96-4.77,0-9.43,.64-13.96,1.92-4.53,1.28-8.55,3.22-12.06,5.82-3.51,2.6-6.33,5.82-8.48,9.65-2.14,3.83-3.21,8.31-3.21,13.42s1.07,9.61,3.21,13.49c2.14,3.88,4.92,7.12,8.33,9.72,3.41,2.6,7.31,4.5,11.69,5.68,4.38,1.19,8.82,1.78,13.3,1.78Z"/><path d="M495.4,70.37c-2.73,0-4.09-.68-4.09-2.05V17.11c0-1.37,1.36-2.05,4.09-2.05v-2.46h-22.21v2.46c1.56,0,2.63,.16,3.21,.48,.58,.32,.88,.84,.88,1.57v51.2c0,.73-.29,1.26-.88,1.57-.58,.32-1.66,.48-3.21,.48v2.46h22.21v-2.46Z"/><path d="M556.78,36.76c-.39,.32-1.41,.48-3.07,.48h-25.72v-14.51h39.6c1.66,0,2.83,.21,3.51,.62,.68,.41,1.02,.84,1.02,1.3h2.63V10.13h-2.63c0,.73-.34,1.32-1.02,1.78-.68,.46-1.85,.68-3.51,.68h-56.7v2.46c2.05,0,3.07,.68,3.07,2.05v51.2c0,1.37-.93,2.05-2.78,2.05v2.46h20.17v-2.46c-.88,0-1.66-.16-2.34-.48-.68-.32-1.02-.84-1.02-1.57v-20.95h25.72c1.66,0,2.68,.18,3.07,.55,.39,.37,.63,.91,.73,1.64h2.63v-14.38h-2.63c-.1,.73-.34,1.26-.73,1.57Z"/><path d="M607.78,70.37c-2.73,0-4.09-.68-4.09-2.05V17.11c0-1.37,1.36-2.05,4.09-2.05v-2.46h-22.21v2.46c1.56,0,2.63,.16,3.21,.48,.58,.32,.88,.84,.88,1.57v51.2c0,.73-.29,1.26-.88,1.57-.58,.32-1.66,.48-3.21,.48v2.46h22.21v-2.46Z"/><path d="M688.15,65.44c.49,0,1.31,.23,2.48,.68l1.46-.68-10.81-14.51-1.61,1.37c.1,.37,.15,.82,.15,1.37v1.1c0,.82-.71,1.74-2.12,2.74-1.41,1.01-3.24,1.94-5.48,2.81-2.24,.87-4.73,1.62-7.45,2.26-2.73,.64-5.41,.96-8.04,.96-2.83,0-5.6-.48-8.33-1.44-2.73-.96-5.17-2.37-7.31-4.24-2.14-1.87-3.87-4.11-5.19-6.71-1.32-2.6-1.97-5.54-1.97-8.83s.58-6.21,1.75-8.76c1.17-2.55,2.83-4.7,4.97-6.43,2.14-1.73,4.65-3.03,7.53-3.9,2.87-.87,6.06-1.3,9.57-1.3,2.92,0,5.6,.25,8.04,.75,2.43,.5,4.55,1.12,6.36,1.85,1.8,.73,3.19,1.48,4.16,2.26,.97,.78,1.46,1.39,1.46,1.85,0,.27,.02,.5,.07,.68,.05,.18,.07,.37,.07,.55l1.61,1.1,9.64-13.01-1.75-.96c-.39,.18-.76,.41-1.1,.68-.34,.27-.76,.41-1.24,.41-.68,0-1.8-.32-3.36-.96-1.56-.64-3.51-1.37-5.84-2.19-2.34-.82-5.04-1.55-8.11-2.19-3.07-.64-6.46-.96-10.16-.96-4.77,0-9.43,.64-13.96,1.92-4.53,1.28-8.55,3.22-12.06,5.82-3.51,2.6-6.33,5.82-8.48,9.65-2.14,3.83-3.21,8.31-3.21,13.42s1.07,9.61,3.21,13.49c2.14,3.88,4.92,7.12,8.33,9.72,3.41,2.6,7.31,4.5,11.69,5.68,4.38,1.19,8.82,1.78,13.3,1.78s8.35-.37,11.91-1.1c3.55-.73,6.67-1.62,9.35-2.67,2.68-1.05,4.9-1.98,6.65-2.81,1.75-.82,3.02-1.23,3.8-1.23Z"/><path d="M41.63,124.32c.21,.25,.32,.54,.32,.89,0,.64-.51,1.32-1.54,2.03-1.02,.71-2.3,1.35-3.82,1.92-1.53,.57-3.21,1.03-5.05,1.4-1.84,.37-3.6,.55-5.28,.55-2.21,0-4.32-.3-6.35-.89-2.02-.59-3.78-1.45-5.28-2.58-1.5-1.13-2.69-2.52-3.59-4.17-.89-1.65-1.34-3.53-1.34-5.65s.45-4,1.34-5.65c.89-1.65,2.09-3.04,3.59-4.17,1.5-1.13,3.26-1.99,5.28-2.58,2.02-.59,4.14-.89,6.35-.89,1.31,0,2.75,.15,4.3,.44,1.55,.3,3.02,.67,4.42,1.11,1.39,.44,2.56,.95,3.51,1.51,.95,.57,1.47,1.12,1.58,1.66,.05,.2,.09,.37,.12,.52,.03,.15,.04,.3,.04,.44l.79,.52,6.15-8.94-1.18-.89c-.11,.15-.25,.35-.43,.59-.18,.25-.41,.37-.67,.37-.21,0-.79-.2-1.73-.59-.95-.39-2.23-.81-3.86-1.25-1.63-.44-3.54-.86-5.72-1.26-2.18-.39-4.61-.59-7.29-.59-3.31,0-6.49,.42-9.54,1.26-3.05,.84-5.74,2.09-8.08,3.77-2.34,1.67-4.19,3.75-5.56,6.24-1.37,2.49-2.05,5.35-2.05,8.6s.68,6.18,2.05,8.64c1.37,2.46,3.22,4.52,5.56,6.17,2.34,1.65,5.03,2.87,8.08,3.66,3.05,.79,6.23,1.18,9.54,1.18,2.52,0,4.94-.27,7.25-.81,2.31-.54,4.38-1.18,6.19-1.92,1.81-.74,3.31-1.4,4.49-2,1.18-.59,1.93-.89,2.25-.89,.16,0,.3,.01,.43,.04,.13,.03,.28,.04,.43,.04l.63-.59-5.2-7.83-1.1,.59Z"/><path d="M90.98,108.66c-1.89-1.38-4.11-2.41-6.66-3.1-2.55-.69-5.27-1.03-8.16-1.03s-5.61,.35-8.16,1.03c-2.55,.69-4.77,1.72-6.66,3.1-1.89,1.38-3.39,3.11-4.49,5.21s-1.66,4.54-1.66,7.35,.55,5.26,1.66,7.35c1.1,2.09,2.6,3.83,4.49,5.21,1.89,1.38,4.11,2.38,6.66,2.99,2.55,.62,5.27,.92,8.16,.92s5.61-.31,8.16-.92c2.55-.61,4.77-1.61,6.66-2.99,1.89-1.38,3.39-3.11,4.49-5.21,1.1-2.09,1.66-4.54,1.66-7.35s-.55-5.26-1.66-7.35-2.6-3.83-4.49-5.21Zm-2.56,17.28c-.76,1.38-1.77,2.55-3.04,3.51-1.26,.96-2.69,1.7-4.3,2.22-1.6,.52-3.25,.78-4.93,.78s-3.32-.26-4.93-.78c-1.6-.52-3.04-1.26-4.3-2.22s-2.27-2.13-3.04-3.51c-.76-1.38-1.14-2.95-1.14-4.73s.38-3.35,1.14-4.73c.76-1.38,1.77-2.55,3.04-3.51s2.69-1.7,4.3-2.22c1.6-.52,3.24-.78,4.93-.78s3.32,.26,4.93,.78c1.6,.52,3.04,1.26,4.3,2.22,1.26,.96,2.27,2.13,3.04,3.51,.76,1.38,1.14,2.95,1.14,4.73s-.38,3.35-1.14,4.73Z"/><path d="M133.63,106.29c1.05,0,1.58,.37,1.58,1.11v20.02l-18.92-18.76c-1.16-1.08-1.73-1.75-1.73-1.99,0-.2,.18-.32,.55-.37v-1.33h-11.59v1.33c.95,0,1.42,.37,1.42,1.11v27.62c0,.74-.47,1.11-1.42,1.11v1.33h9.7v-1.33c-1.1,0-1.66-.37-1.66-1.11v-21.49l19.55,19.5c.63,.64,1.2,1.21,1.7,1.7,.5,.49,.75,.84,.75,1.03,0,.25-.18,.37-.55,.37v1.33h10.25v-1.33c-.95,0-1.42-.37-1.42-1.11v-27.62c0-.74,.47-1.11,1.42-1.11v-1.33h-9.62v1.33Z"/><path d="M161.23,110.8c.74-.3,1.58-.5,2.52-.63,.95-.12,1.94-.18,3-.18,2.73,0,5.2,.3,7.41,.89,2.21,.59,3.84,1.3,4.89,2.14,.42,.29,.66,.59,.71,.89,.05,.3,.1,.59,.16,.89l1.42,.44,3.94-6.94-.87-.81c-.32,.15-.58,.28-.79,.41-.21,.12-.53,.18-.95,.18-.37,0-.93-.18-1.7-.55-.76-.37-1.75-.78-2.96-1.22-1.21-.44-2.69-.85-4.45-1.22-1.76-.37-3.88-.55-6.35-.55-5.05,0-8.96,.94-11.75,2.81-2.79,1.87-4.18,4.38-4.18,7.53,0,2.12,.64,3.75,1.93,4.91,1.29,1.16,2.9,2.04,4.85,2.66,1.94,.62,4.05,1.06,6.31,1.33,2.26,.27,4.36,.54,6.31,.81,1.94,.27,3.56,.65,4.85,1.15,1.29,.49,1.93,1.28,1.93,2.36,0,.94-.37,1.69-1.1,2.25-.74,.57-1.63,1.01-2.68,1.33-1.05,.32-2.12,.53-3.19,.63s-1.98,.15-2.72,.15c-.79,0-1.88-.12-3.27-.37-1.39-.25-2.79-.58-4.18-1-1.39-.42-2.59-.93-3.59-1.55-1-.62-1.5-1.29-1.5-2.03,0-.25,.01-.48,.04-.7,.03-.22,.04-.43,.04-.63l-1.5-.37-3.63,8.27,1.1,.74c.26-.29,.58-.44,.95-.44,.21,0,.81,.19,1.81,.55,1,.37,2.22,.76,3.67,1.18,1.45,.42,3.05,.79,4.81,1.11,1.76,.32,3.53,.48,5.32,.48s3.69-.12,5.72-.37c2.02-.25,3.88-.76,5.56-1.55,1.68-.79,3.09-1.87,4.22-3.25,1.13-1.38,1.7-3.15,1.7-5.32s-.64-3.86-1.93-5.1c-1.29-1.23-2.9-2.17-4.85-2.81-1.95-.64-4.05-1.1-6.31-1.37-2.26-.27-4.36-.54-6.31-.81-1.94-.27-3.56-.64-4.85-1.11-1.29-.47-1.93-1.24-1.93-2.33,0-.69,.21-1.27,.63-1.74,.42-.47,1-.85,1.73-1.14Z"/><path d="M223.74,104.6c-.37,.25-.76,.37-1.18,.37h-28.07c-.42,0-.82-.12-1.18-.37-.37-.25-.55-.71-.55-1.4h-1.42v8.49h1.42c0-.44,.18-.76,.55-.96,.37-.2,.76-.29,1.18-.29h10.25v24.59c0,.39-.13,.68-.39,.85-.26,.17-.53,.26-.79,.26v1.33h10.17v-1.33c-.95,0-1.42-.37-1.42-1.11v-24.59h10.25c.42,0,.81,.1,1.18,.29,.37,.2,.55,.52,.55,.96h1.42v-8.49h-1.42c0,.69-.18,1.16-.55,1.4Z"/><path d="M266.63,134.29l-7.73-10.56c1.1-.25,2.18-.6,3.23-1.07,1.05-.47,2.01-1.08,2.88-1.85,.87-.76,1.56-1.66,2.09-2.7,.52-1.03,.79-2.21,.79-3.54,0-3.5-1.31-5.97-3.94-7.42-2.63-1.45-6.28-2.18-10.96-2.18h-21.76v1.33c.95,0,1.42,.37,1.42,1.11v27.62c0,.74-.47,1.11-1.42,1.11v1.33h10.49v-1.33c-.32,0-.64-.09-.99-.26-.34-.17-.51-.46-.51-.85v-10.56h10.96l6.23,8.71c.79,1.03,1.18,1.8,1.18,2.29,0,.44-.34,.67-1.03,.67v1.33h12.06v-1.33c-.58-.15-1.12-.36-1.62-.63-.5-.27-.96-.68-1.38-1.22Zm-13.8-15.29h-12.46v-8.57h12.46c2.68,0,4.64,.36,5.87,1.07,1.23,.71,1.85,1.69,1.85,2.92,0,3.05-2.58,4.58-7.73,4.58Z"/><path d="M302.74,106.3c1.31,0,1.97,.37,1.97,1.11v16.96c0,2.37-.92,4.27-2.76,5.7-1.84,1.43-4.65,2.15-8.44,2.15s-6.6-.72-8.44-2.15c-1.84-1.43-2.76-3.33-2.76-5.7v-16.96c0-.74,.58-1.11,1.73-1.11v-1.33h-11.27v1.33c.89,0,1.5,.09,1.81,.26,.32,.17,.47,.46,.47,.85v18.69c0,1.53,.37,2.99,1.1,4.39,.74,1.4,1.85,2.65,3.35,3.73,1.5,1.08,3.42,1.93,5.76,2.55,2.34,.62,5.08,.92,8.24,.92s5.9-.31,8.24-.92c2.34-.61,4.26-1.46,5.75-2.55,1.5-1.08,2.61-2.33,3.35-3.73,.74-1.4,1.1-2.87,1.1-4.39v-18.69c0-.74,.58-1.11,1.73-1.11v-1.33h-10.96v1.33Z"/><path d="M352.72,126.38c.05,.2,.08,.44,.08,.74v.59c0,.44-.38,.94-1.14,1.48-.76,.54-1.75,1.05-2.96,1.51s-2.55,.87-4.02,1.22c-1.47,.34-2.92,.52-4.34,.52-1.52,0-3.02-.26-4.49-.78-1.47-.52-2.79-1.28-3.94-2.29-1.16-1.01-2.09-2.22-2.8-3.62-.71-1.4-1.06-2.99-1.06-4.76s.32-3.35,.95-4.73c.63-1.38,1.52-2.54,2.68-3.47,1.16-.93,2.51-1.64,4.06-2.1,1.55-.47,3.27-.7,5.16-.7,1.58,0,3.02,.14,4.34,.41,1.31,.27,2.46,.6,3.43,1,.97,.39,1.72,.8,2.25,1.22,.52,.42,.79,.75,.79,1,0,.15,.01,.27,.04,.37,.03,.1,.04,.2,.04,.3l.87,.59,5.2-7.02-.95-.52c-.21,.1-.41,.22-.59,.37-.18,.15-.41,.22-.67,.22-.37,0-.97-.17-1.81-.52-.84-.34-1.89-.74-3.15-1.18-1.26-.44-2.72-.84-4.38-1.18-1.66-.34-3.48-.52-5.48-.52-2.58,0-5.09,.35-7.53,1.03-2.44,.69-4.61,1.74-6.5,3.14-1.89,1.4-3.42,3.14-4.57,5.21-1.16,2.07-1.73,4.48-1.73,7.24s.58,5.18,1.73,7.28c1.16,2.09,2.65,3.84,4.49,5.24,1.84,1.4,3.94,2.43,6.31,3.07,2.37,.64,4.76,.96,7.17,.96s4.51-.2,6.42-.59c1.92-.39,3.6-.87,5.05-1.44,1.44-.57,2.64-1.07,3.59-1.51,.95-.44,1.63-.67,2.05-.67,.26,0,.71,.12,1.34,.37l.79-.37-5.83-7.83-.87,.74Z"/><path d="M398.29,104.6c-.37,.25-.76,.37-1.18,.37h-28.07c-.42,0-.82-.12-1.18-.37-.37-.25-.55-.71-.55-1.4h-1.42v8.49h1.42c0-.44,.18-.76,.55-.96,.37-.2,.76-.29,1.18-.29h10.25v24.59c0,.39-.13,.68-.39,.85-.26,.17-.53,.26-.79,.26v1.33h10.17v-1.33c-.95,0-1.42-.37-1.42-1.11v-24.59h10.25c.42,0,.81,.1,1.18,.29,.37,.2,.55,.52,.55,.96h1.42v-8.49h-1.42c0,.69-.18,1.16-.55,1.4Z"/><path d="M405.15,106.29c.84,0,1.42,.09,1.73,.26,.32,.17,.47,.46,.47,.85v27.62c0,.39-.16,.68-.47,.85-.32,.17-.89,.26-1.73,.26v1.33h11.98v-1.33c-1.47,0-2.21-.37-2.21-1.11v-27.62c0-.74,.74-1.11,2.21-1.11v-1.33h-11.98v1.33Z"/><path d="M460.02,108.66c-1.89-1.38-4.11-2.41-6.66-3.1-2.55-.69-5.27-1.03-8.16-1.03s-5.61,.35-8.16,1.03c-2.55,.69-4.77,1.72-6.66,3.1-1.89,1.38-3.39,3.11-4.49,5.21s-1.66,4.54-1.66,7.35,.55,5.26,1.66,7.35c1.1,2.09,2.6,3.83,4.49,5.21,1.89,1.38,4.11,2.38,6.66,2.99,2.55,.62,5.27,.92,8.16,.92s5.61-.31,8.16-.92c2.55-.61,4.77-1.61,6.66-2.99,1.89-1.38,3.39-3.11,4.49-5.21,1.1-2.09,1.66-4.54,1.66-7.35s-.55-5.26-1.66-7.35-2.6-3.83-4.49-5.21Zm-2.56,17.28c-.76,1.38-1.77,2.55-3.04,3.51-1.26,.96-2.69,1.7-4.3,2.22-1.6,.52-3.25,.78-4.93,.78s-3.32-.26-4.93-.78c-1.6-.52-3.04-1.26-4.3-2.22s-2.27-2.13-3.04-3.51c-.76-1.38-1.14-2.95-1.14-4.73s.38-3.35,1.14-4.73c.76-1.38,1.77-2.55,3.04-3.51s2.69-1.7,4.3-2.22c1.6-.52,3.24-.78,4.93-.78s3.32,.26,4.93,.78c1.6,.52,3.04,1.26,4.3,2.22,1.26,.96,2.27,2.13,3.04,3.51,.76,1.38,1.14,2.95,1.14,4.73s-.38,3.35-1.14,4.73Z"/><path d="M504.24,106.29c1.05,0,1.58,.37,1.58,1.11v20.02l-18.92-18.76c-1.16-1.08-1.73-1.75-1.73-1.99,0-.2,.18-.32,.55-.37v-1.33h-11.59v1.33c.95,0,1.42,.37,1.42,1.11v27.62c0,.74-.47,1.11-1.42,1.11v1.33h9.7v-1.33c-1.1,0-1.66-.37-1.66-1.11v-21.49l19.55,19.5c.63,.64,1.2,1.21,1.7,1.7,.5,.49,.75,.84,.75,1.03,0,.25-.18,.37-.55,.37v1.33h10.25v-1.33c-.95,0-1.42-.37-1.42-1.11v-27.62c0-.74,.47-1.11,1.42-1.11v-1.33h-9.62v1.33Z"/><path d="M529.08,127.42c-1.37,0-2.59,.52-3.67,1.55-1.08,1.03-1.62,2.27-1.62,3.69s.49,2.62,1.46,3.43c.97,.81,2.12,1.22,3.43,1.22,.42,0,.87,.03,1.34,.07,.47,.05,.76,.17,.87,.37,.11,.89-.11,1.77-.63,2.66-.53,.89-1.2,1.71-2.01,2.47-.82,.76-1.72,1.43-2.72,1.99-1,.57-1.89,.95-2.68,1.14v2.36c1.63-.34,3.21-.96,4.73-1.85,1.52-.89,2.86-1.95,4.02-3.18,1.16-1.23,2.09-2.57,2.8-4.03,.71-1.45,1.06-2.97,1.06-4.54,0-2.07-.54-3.82-1.62-5.24-1.08-1.43-2.67-2.14-4.77-2.14Z"/><path d="M562.35,99.94c1.37,0,2.05,.44,2.05,1.33v33.53c0,.89-.68,1.33-2.05,1.33v1.33h13.09v-1.33c-1.37,0-2.05-.44-2.05-1.33v-33.53c0-.89,.68-1.33,2.05-1.33v-1.33h-13.09v1.33Z"/><path d="M613.83,106.29c1.05,0,1.58,.37,1.58,1.11v20.02l-18.92-18.76c-1.16-1.08-1.73-1.75-1.73-1.99,0-.2,.18-.32,.55-.37v-1.33h-11.59v1.33c.95,0,1.42,.37,1.42,1.11v27.62c0,.74-.47,1.11-1.42,1.11v1.33h9.7v-1.33c-1.1,0-1.66-.37-1.66-1.11v-21.49l19.55,19.5c.63,.64,1.2,1.21,1.7,1.7,.5,.49,.75,.84,.75,1.03,0,.25-.18,.37-.55,.37v1.33h10.25v-1.33c-.95,0-1.42-.37-1.42-1.11v-27.62c0-.74,.47-1.11,1.42-1.11v-1.33h-9.62v1.33Z"/><path d="M664.68,126.38c.05,.2,.08,.44,.08,.74v.59c0,.44-.38,.94-1.14,1.48-.76,.54-1.75,1.05-2.96,1.51s-2.55,.87-4.02,1.22c-1.47,.34-2.92,.52-4.34,.52-1.52,0-3.02-.26-4.49-.78-1.47-.52-2.79-1.28-3.94-2.29-1.16-1.01-2.09-2.22-2.8-3.62-.71-1.4-1.06-2.99-1.06-4.76s.32-3.35,.95-4.73c.63-1.38,1.52-2.54,2.68-3.47,1.16-.93,2.51-1.64,4.06-2.1,1.55-.47,3.27-.7,5.16-.7,1.58,0,3.02,.14,4.34,.41,1.31,.27,2.46,.6,3.43,1,.97,.39,1.72,.8,2.25,1.22,.52,.42,.79,.75,.79,1,0,.15,.01,.27,.04,.37,.03,.1,.04,.2,.04,.3l.87,.59,5.2-7.02-.95-.52c-.21,.1-.41,.22-.59,.37-.18,.15-.41,.22-.67,.22-.37,0-.97-.17-1.81-.52-.84-.34-1.89-.74-3.15-1.18-1.26-.44-2.72-.84-4.38-1.18-1.66-.34-3.48-.52-5.48-.52-2.58,0-5.09,.35-7.53,1.03-2.44,.69-4.61,1.74-6.5,3.14-1.89,1.4-3.42,3.14-4.57,5.21-1.16,2.07-1.73,4.48-1.73,7.24s.58,5.18,1.73,7.28c1.16,2.09,2.65,3.84,4.49,5.24,1.84,1.4,3.94,2.43,6.31,3.07,2.37,.64,4.76,.96,7.17,.96s4.51-.2,6.42-.59c1.92-.39,3.6-.87,5.05-1.44,1.44-.57,2.64-1.07,3.59-1.51,.95-.44,1.63-.67,2.05-.67,.26,0,.71,.12,1.34,.37l.79-.37-5.83-7.83-.87,.74Z"/><path d="M685.72,127.42c-1.53,0-2.84,.52-3.94,1.55-1.1,1.03-1.66,2.27-1.66,3.69s.55,2.62,1.66,3.58c1.1,.96,2.42,1.44,3.94,1.44s2.84-.48,3.94-1.44c1.1-.96,1.66-2.15,1.66-3.58s-.55-2.66-1.66-3.69c-1.1-1.03-2.42-1.55-3.94-1.55Z"/><text class="d" transform="translate(393.63 189.22)"><tspan x="0" y="0">License# 721485</tspan></text></g></g></svg>