<?xml version="1.0" encoding="UTF-8"?> <svg xmlns="http://www.w3.org/2000/svg" id="Layer_1" data-name="Layer 1" width="229.18" height="71.33" viewBox="0 0 229.18 71.33"><defs><style>.cls-1{fill:#0079ba;}.cls-2{fill:#fff;}</style></defs><title>westside-logo-dark-v1</title><path class="cls-1" d="M45,63.49c19.41,0,36.29,3.17,45,7.84C79.85,67.85,63.48,65.6,45,65.6S10.18,67.85,0,71.32C8.74,66.65,25.62,63.49,45,63.49Z"></path><path class="cls-1" d="M69.2,17.59V63c-1.63-.26-3.3-.48-5-.68V20.24Z"></path><path class="cls-1" d="M58.3,9.78v52c-1.65-.13-3.3-.24-5-.32V13Z"></path><path class="cls-1" d="M47.32,0V61.28c-.77,0-1.54,0-2.32,0a159.45,159.45,0,0,0-24.68,1.85h0V21.2Z"></path><path class="cls-2" d="M169.77,32.43c-2-.59-3.17-1.11-3.17-2.39,0-.93.85-2.43,3.71-2.43a3.47,3.47,0,0,1,3.61,2.75h3.85a5.93,5.93,0,0,0-2.47-4.25,8.43,8.43,0,0,0-5.25-1.64c-5.42,0-7.31,4-7.31,5.75,0,3.14,2.86,4.58,6.89,5.57,4.68,1.14,4.86,2.78,4.86,3.42,0,2.36-2.75,2.79-4.25,2.79-3.11,0-4.22-2.25-4.22-4.33h-3.84c.07,3,1.07,4.62,2.52,5.79a8.47,8.47,0,0,0,5.7,1.75c3.23,0,7.77-1.17,7.77-6C178.17,34,172.49,33.21,169.77,32.43Z"></path><path class="cls-2" d="M130.83,32.43c-2-.59-3.18-1.11-3.18-2.39,0-.93.85-2.43,3.71-2.43A3.47,3.47,0,0,1,135,30.36h3.85a5.93,5.93,0,0,0-2.47-4.25,8.43,8.43,0,0,0-5.25-1.64c-5.42,0-7.31,4-7.31,5.75,0,3.14,2.86,4.58,6.89,5.57,4.68,1.14,4.86,2.78,4.86,3.42,0,2.36-2.75,2.79-4.25,2.79-3.11,0-4.21-2.25-4.22-4.33h-3.84c.07,3,1.07,4.62,2.52,5.79a8.47,8.47,0,0,0,5.7,1.75c3.23,0,7.77-1.17,7.77-6C139.22,34,133.54,33.21,130.83,32.43Z"></path><rect class="cls-2" x="182.58" y="25.2" width="3.62" height="19.48"></rect><polygon class="cls-2" points="142.77 28.33 148.5 28.33 148.5 44.68 152.13 44.68 152.13 28.33 157.86 28.33 157.86 25.2 142.77 25.2 142.77 28.33"></polygon><polygon class="cls-2" points="103.63 44.63 118.56 44.63 118.56 41.48 107.27 41.48 107.27 37.59 116.65 37.59 116.65 34.45 107.27 34.45 107.27 28.34 118.56 28.34 118.56 25.2 103.63 25.2 103.63 44.63"></polygon><polygon class="cls-2" points="229.02 28.34 229.02 25.2 214.09 25.2 214.09 44.63 229.02 44.63 229.02 41.48 217.73 41.48 217.73 37.59 227.11 37.59 227.11 34.45 217.73 34.45 217.73 28.34 229.02 28.34"></polygon><polygon class="cls-2" points="94.98 38.55 89.35 31.68 83.72 38.55 83.72 25.2 80.1 25.2 80.1 44.68 83.41 44.68 89.35 37.41 95.3 44.68 98.6 44.68 98.6 25.2 94.98 25.2 94.98 38.55"></polygon><path class="cls-2" d="M199.62,25.17h-8.7V44.65h8.7a9.74,9.74,0,1,0,0-19.48Zm0,15.86h-5.08V28.79h5.08a6.12,6.12,0,1,1,0,12.24Z"></path><rect class="cls-2" x="205.33" y="49.12" width="1.71" height="10.71"></rect><polygon class="cls-2" points="214.65 55.95 210.67 49.12 210.63 49.12 208.92 49.12 208.92 59.83 210.63 59.83 210.63 52.92 214.65 59.83 216.35 59.83 216.35 49.12 214.65 49.12 214.65 55.95"></polygon><path class="cls-2" d="M224.09,58.41a3.93,3.93,0,1,1,0-7.85,4,4,0,0,1,2.85,1.21h2.24a5.76,5.76,0,1,0,0,5.48H226.9A4,4,0,0,1,224.09,58.41Z"></path><path class="cls-2" d="M188.47,52.87c-1-.32-1.58-.61-1.58-1.32,0-.51.43-1.33,1.84-1.33a1.78,1.78,0,0,1,1.79,1.51h1.91a3.38,3.38,0,0,0-1.22-2.34,3.94,3.94,0,0,0-2.61-.9A3.45,3.45,0,0,0,185,51.65c0,1.73,1.42,2.53,3.42,3.07,2.32.63,2.4,1.53,2.4,1.89,0,1.3-1.36,1.53-2.1,1.53a2.12,2.12,0,0,1-2.1-2.38h-1.9A4,4,0,0,0,186,59a3.94,3.94,0,0,0,2.83,1c1.6,0,3.85-.64,3.85-3.3C192.63,53.74,189.81,53.31,188.47,52.87Z"></path><polygon class="cls-2" points="110.79 55.95 106.81 49.12 106.77 49.12 105.06 49.12 105.06 59.83 106.77 59.83 106.77 52.92 110.79 59.83 112.49 59.83 112.49 49.12 110.79 49.12 110.79 55.95"></polygon><path class="cls-2" d="M168.27,48.72A5.77,5.77,0,1,0,174,54.49,5.77,5.77,0,0,0,168.27,48.72Zm0,9.7a3.94,3.94,0,1,1,3.93-3.93A3.94,3.94,0,0,1,168.27,58.42Z"></path><path class="cls-2" d="M147.4,50.56a4,4,0,0,1,2.85,1.21h2.24a5.77,5.77,0,1,0,0,5.48H150.2a3.93,3.93,0,1,1-2.8-6.69Z"></path><path class="cls-2" d="M97.5,48.72a5.77,5.77,0,1,0,5.77,5.77A5.76,5.76,0,0,0,97.5,48.72Zm0,9.7a3.94,3.94,0,1,1,3.94-3.93A3.94,3.94,0,0,1,97.5,58.42Z"></path><path class="cls-2" d="M84.94,50.56a4,4,0,0,1,2.85,1.21H90a5.76,5.76,0,1,0,0,5.48H87.75a4,4,0,0,1-2.81,1.16,3.93,3.93,0,1,1,0-7.85Z"></path><polygon class="cls-2" points="154.45 50.83 157.39 50.83 157.39 59.83 159.1 59.83 159.1 50.83 162.04 50.83 162.04 49.12 154.45 49.12 154.45 50.83"></polygon><polygon class="cls-2" points="114.58 50.83 117.52 50.83 117.52 59.83 119.22 59.83 119.22 50.83 122.17 50.83 122.17 49.12 114.58 49.12 114.58 50.83"></polygon><path class="cls-2" d="M127.75,49.12h-3.68V59.83h1.71V55.66h2c.59,0,1.57.13,1.57,1.06v3.11H131V56.72a2.51,2.51,0,0,0-.94-2,3.27,3.27,0,0,0-2.33-5.56Zm-2,4.83V50.83h2a1.56,1.56,0,1,1,0,3.12Z"></path><path class="cls-2" d="M179.58,49.12h-3.69V59.83h1.71V55.66h2c.58,0,1.56.13,1.56,1.06v3.11h1.7V56.72a2.5,2.5,0,0,0-.93-2,3.27,3.27,0,0,0-2.33-5.56Zm-2,4.83V50.83h2a1.56,1.56,0,1,1,0,3.12Z"></path><path class="cls-2" d="M136.15,49.12l-3.42,10.71h1.9L136,55.66h2.27l1.33,4.17h1.9L138,49.12Zm.25,5.16.7-2.19.69,2.19Z"></path></svg> 